<?xml version="1.0" encoding="UTF-8" standalone="no"?>
<svg
        direction="ltr"
        width="161.6796648584118"
        height="154.1283436341896"
        viewBox="1259.5367907135724 -907.6915334713667 161.6796648584118 154.1283436341896"
        stroke-linecap="round"
        stroke-linejoin="round"
        data-color-mode="dark"
        class="tl-container tl-theme__force-sRGB tl-theme__dark"
        style="background-color: transparent;"
        version="1.1"
        id="svg6"
        sodipodi:docname="lambdaDot.svg"
        inkscape:version="1.3.2 (091e20e, 2023-11-25, custom)"
        xmlns:inkscape="http://www.inkscape.org/namespaces/inkscape"
        xmlns:sodipodi="http://sodipodi.sourceforge.net/DTD/sodipodi-0.dtd"
        xmlns="http://www.w3.org/2000/svg"
>
    <sodipodi:namedview
            id="namedview6"
            pagecolor="#505050"
            bordercolor="#eeeeee"
            borderopacity="1"
            inkscape:showpageshadow="0"
            inkscape:pageopacity="0"
            inkscape:pagecheckerboard="0"
            inkscape:deskcolor="#505050"
            inkscape:zoom="2.6633648"
            inkscape:cx="50.500029"
            inkscape:cy="115.45546"
            inkscape:window-width="1920"
            inkscape:window-height="1017"
            inkscape:window-x="1911"
            inkscape:window-y="-9"
            inkscape:window-maximized="1"
            inkscape:current-layer="svg6"/>
    <defs
            id="defs1"/>
    <g
            transform="matrix(1.3897496,-0.09723789,0.09723789,1.3897496,1271.4616,-764.43876)"
            opacity="1"
            id="g2">
        <g
                id="g1">
            <path
                    d="m -5.9429,-5.5968 q 0,0 2.2887,-2.3209 2.2887,-2.3209 5.4761,-5.9084 3.1874,-3.5875 6.5445,-7.1817 3.3571,-3.5942 5.8977,-5.9145 2.5406,-2.3203 5.4741,-4.7257 2.9335,-2.4054 5.644,-4.7558 2.7105,-2.3504 6.2449,-4.5489 3.5344,-2.1985 7.2413,-5.1053 3.7069,-2.9068 3.7066,-2.9068 a 8.8441,8.8441 0 0 1 10.85,13.9696 q 0,0 -4.4155,3.1715 -4.4155,3.1715 -8.3005,5.6439 -3.885,2.4724 -7.4153,4.9327 -3.5303,2.4603 -6.9224,5.3493 -3.3921,2.889 -6.2039,5.7967 -2.8118,2.9077 -6.3386,6.879 Q 10.302,0.7492 8.1224,3.1731 5.9428,5.597 5.9429,5.5968 A 8.1635,8.1635 0 0 1 -5.9429,-5.5968 Z"
                    stroke-linecap="round"
                    fill="#4f72fc"
                    id="path1"/>
        </g>
    </g>
    <g
            transform="matrix(1.3363802,-0.10257735,0.09350375,1.4660626,1299.7252,-884.89582)"
            opacity="1"
            id="g4">
        <g
                id="g3">
            <path
                    d="m 1.5346,-8.058 q 0,0 3.1042,0.6609 3.1042,0.6609 8.7594,2.0418 5.6552,1.3809 9.7172,2.4226 4.062,1.0417 8.0821,2.5588 4.0201,1.5171 7.3518,3.2149 3.3317,1.6978 6.4663,4.3709 3.1346,2.6731 5.2727,5.5711 2.1381,2.898 4.0406,5.9749 1.9025,3.0769 3.2677,6.2632 1.3652,3.1863 2.2866,7.0075 0.9214,3.8212 1.5262,7.1987 0.6048,3.3775 1.2499,7.205 0.6451,3.8275 1.207,7.7735 0.5619,3.946 1.4355,8.2455 0.8736,4.2995 2.5435,7.5748 1.6699,3.2753 5.7573,5.3072 4.0874,2.0319 4.0871,2.0316 a 9.2201,9.2201 0 0 1 -5.3394,17.6502 q 0,0 -3.8961,-1.2219 -3.8961,-1.2219 -6.7769,-3.2509 -2.8808,-2.029 -5.8548,-5.4308 -2.974,-3.4018 -4.9494,-7.6207 -1.9754,-4.2189 -2.833,-7.867 -0.8576,-3.6481 -1.4917,-7.7894 -0.6341,-4.1413 -1.165,-7.8622 -0.5309,-3.7209 -1.13,-7.1948 Q 43.6543,43.3035 43.2548,39.7207 42.8553,36.1379 41.3905,32.4106 39.9257,28.6833 38.0244,25.6081 36.1231,22.5329 33.031,19.851 29.9389,17.1691 26.1757,15.3745 22.4125,13.5799 18.7804,12.5416 15.1483,11.5033 9.9365,10.3068 4.7247,9.1103 1.5951,8.5843 -1.5345,8.0583 -1.5346,8.058 A 8.2028264,8.2028264 0 0 1 1.5346,-8.058 Z"
                    stroke-linecap="round"
                    fill="#4dabf7"
                    id="path2"/>
        </g>
    </g>
    <g
            transform="matrix(1.3930931,0,0,1.3930931,1337.5813,-767.78093)"
            opacity="1"
            id="g6">
        <g
                id="g5">
            <path
                    d="m -4.186,7.4932 q 0,0 -3.3264,-1.9531 -3.3264,-1.9531 -5.5355,-6.1572 -2.2091,-4.2041 -2.4076,-8.8031 -0.1985,-4.599 1.6189,-7.9639 1.8174,-3.3649 4.9089,-5.0762 3.0915,-1.7113 6.7911,-2.1211 3.6996,-0.4098 8.3346,2.0743 4.635,2.4841 6.2505,6.7659 1.6155,4.2818 1.9952,8.7586 0.3797,4.4768 0.3795,4.4768 a 9.2088,9.2088 0 0 1 -18.4135,0.386 q 0,0 2.1534,-3.5609 2.1534,-3.5609 3.8882,-2.6867 1.7348,0.8742 1.7347,0.8742 A 8.5832,8.5832 0 0 1 -4.186,7.4932 Z M 6.8877,6.8078 q 0,0 -2.8095,0.3827 -2.8095,0.3827 -2.8094,0.3827 a 9.1912,9.1912 0 0 1 -2.5376,-18.2064 q 0,0 2.8071,-0.4001 2.8071,-0.4001 2.807,-0.4001 A 9.2088,9.2088 0 0 1 6.8877,6.8078 Z"
                    stroke-linecap="round"
                    fill="#f2f2f2"
                    id="path4"/>
        </g>
    </g>
</svg>
